<svg xmlns="http://www.w3.org/2000/svg" width="44" height="30.8"><defs><clipPath id="a"><path data-name="長方形 30521" fill="none" d="M0 0h44v30.8H0z"/></clipPath></defs><g data-name="グループ 12255"><g data-name="グループ 12254" clip-path="url(#a)"><path data-name="パス 541114" d="M43.08 4.809A5.51 5.51 0 0 0 39.19.92C35.759 0 22 0 22 0S8.241 0 4.809.92a5.51 5.51 0 0 0-3.89 3.89C0 8.241 0 15.4 0 15.4s0 7.159.919 10.59a5.511 5.511 0 0 0 3.89 3.89C8.241 30.8 22 30.8 22 30.8s13.759 0 17.19-.919a5.511 5.511 0 0 0 3.89-3.89C44 22.559 44 15.4 44 15.4s0-7.159-.92-10.591" fill="red"/><path data-name="パス 541115" d="m17.6 22.003 11.431-6.6-11.431-6.6Z" fill="#fff"/></g></g></svg>