<svg width="115" height="40" viewBox="0 0 115 40" fill="none" xmlns="http://www.w3.org/2000/svg">
<g clip-path="url(#clip0_5993_67798)">
<path d="M34.3353 39.9984L34.3091 34.899L31.711 39.0481H30.438L27.8529 35.0357V39.9984H25.209V30.3711H27.5656L31.1234 35.9239L34.5899 30.3711H36.9465L36.9726 39.9984H34.3418H34.3353Z" fill="white"/>
<path d="M50.6493 37.8928V39.9984H42.5283V30.3711H50.4599V32.4767H45.3615V34.0978H49.8528V36.1351H45.3615V37.8928H50.6493Z" fill="white"/>
<path d="M56.2109 30.3711H60.996C64.3515 30.3711 66.6494 32.2282 66.6494 35.1848C66.6494 38.1413 64.3515 39.9984 60.996 39.9984H56.2109V30.3711ZM60.8785 37.8245C62.5954 37.8245 63.7509 36.8494 63.7509 35.1848C63.7509 33.5202 62.5954 32.545 60.8785 32.545H59.0702V37.8245H60.8785Z" fill="white"/>
<path d="M71.1406 30.3711H73.9999V39.9984H71.1406V30.3711Z" fill="white"/>
<path d="M86.0246 38.1289H81.7487L80.9522 39.9984H78.0342L82.4994 30.3711H85.3195L89.7978 39.9984H86.821L86.0246 38.1289ZM85.189 36.1226L83.8899 33.0419L82.5908 36.1226H85.189Z" fill="white"/>
<path d="M48.1353 9.22819C48.1353 8.04185 47.9003 6.92384 47.4303 5.86794C46.9603 4.81825 46.3205 3.899 45.498 3.1226C44.682 2.33999 43.7158 1.73129 42.6126 1.28409C41.5093 0.836884 40.3277 0.613281 39.0809 0.613281H30.1309V26.5077H35.4578V17.7561H39.6423L42.7366 26.5077H48.1614L44.5514 16.0915C46.9472 14.2592 48.1419 11.9735 48.1419 9.22198L48.1353 9.22819ZM42.5603 11.0046C42.3776 11.4518 42.1164 11.8369 41.777 12.1661C41.4375 12.4953 40.9348 12.8742 40.504 13.0729C40.0731 13.2717 39.5966 13.253 39.0809 13.253H35.4513V5.66297H39.0809C39.6031 5.66297 40.1972 5.76235 40.6215 5.96111C41.0524 6.15987 41.431 6.42073 41.7704 6.74993C42.1099 7.07912 42.371 7.46421 42.5538 7.91142C42.7366 8.35862 42.828 8.83067 42.828 9.33378C42.828 10.2033 42.7366 10.5574 42.5538 11.0046H42.5603Z" fill="white"/>
<path d="M19.0466 5.67699L26.5017 4.75153V0.621094L13.7262 2.29811V20.1242C13.7262 20.882 13.5369 23.5093 12.042 26.5093H17.3689C18.6158 25.0248 19.0009 21.1118 19.0466 19.3416V13.2484H20.1172V26.5093H25.418V13.2484H26.5017V9.88817H19.0466V5.66457V5.67699Z" fill="white"/>
<path d="M83.035 11.8633C81.8926 10.9192 80.4303 10.3043 78.9484 10.0621C77.7538 9.86954 76.5134 9.91923 75.3449 10.2422L75.3841 5.67078H85.0326V0.621094H70.0245L70.0768 13.7205L73.3604 16.118L73.7782 15.8385C75.1491 15.0124 76.8725 14.4969 78.4458 15.1553C79.8624 15.7515 80.8546 17.149 80.7959 18.6397C80.7371 20.1056 79.6404 21.4907 78.1781 21.9441C76.5004 22.4658 75.1817 21.9441 73.6998 20.9813C73.158 20.6273 72.1853 19.6211 72.1853 19.6211L69.2607 23.441C69.4892 23.6894 69.7308 23.9317 69.9788 24.1677C70.3575 24.5217 70.8079 24.8323 71.2453 25.1118C71.6957 25.3975 72.1657 25.6584 72.6553 25.882C73.6346 26.3292 74.6725 26.6459 75.7431 26.8199C76.3437 26.913 76.9378 26.9565 77.5384 26.9379C78.1455 26.9192 78.746 26.8385 79.3401 26.7018C79.7514 26.6087 80.1561 26.4844 80.5543 26.3354C81.3246 26.0435 82.0558 25.6521 82.7086 25.1677C84.7976 23.6273 86.1097 21.1677 86.1946 18.6521C86.2795 16.0807 85.0783 13.5403 83.0415 11.8571L83.035 11.8633Z" fill="white"/>
<path d="M12.6292 23.3292V18.8323L11.1734 17.7639H12.6292V14.4472H9.22153V13.2546H12.6292V9.9006H9.22805L12.6292 5.6832V2.29811H9.22153V0.621094H3.90113V2.29811H0.5V5.67078H8.03341L5.148 9.26084L5.14147 6.73911H1.62283V9.9006H0.5V13.2546H3.90113V14.4472H0.5V17.7639H3.90113L0.5 20.8385V25.4161L3.90113 22.3416V26.5155H9.22153V20.8385L12.6292 23.3292Z" fill="white"/>
<path d="M63.7574 0.930115C62.0666 0.0853945 60.0625 -0.206531 58.1889 0.147506C57.0334 0.364898 55.9302 0.830736 54.9706 1.48291C53.4234 2.5326 52.2418 4.07297 51.7783 5.83695C51.6543 6.30279 51.6086 6.78726 51.5759 7.26552C51.5237 7.94875 51.5759 8.72515 51.5759 8.72515H57.0269C57.0269 7.89285 56.9747 7.48912 57.1966 6.74999C57.7058 5.01086 60.3432 4.60092 61.7728 5.68167C62.3538 6.12266 62.7586 6.76241 62.9087 7.45185C63.0719 8.21583 62.85 9.04192 62.504 9.73136C62.3865 9.96738 62.2494 10.1972 62.0992 10.4208C61.6357 11.1102 52.1047 22.0606 52.1047 22.0606V26.514H67.5828V21.4332L59.3835 21.4456C59.3835 21.4456 64.8345 15.0792 65.6374 14.1537C67.2303 12.3214 67.8962 10.5885 68.0789 8.55123C68.2748 6.3649 67.5502 4.18477 65.9834 2.55123C65.3502 1.88664 64.593 1.34005 63.7639 0.923904L63.7574 0.930115Z" fill="white"/>
<path d="M102.188 3.46259H102.149C101.842 3.46259 101.535 3.47502 101.235 3.49986C101.183 3.48744 101.131 3.47502 101.078 3.46259C99.3811 3.04023 100.7 1.54334 99.7075 1.03402C96.3455 -0.680262 93.088 3.29489 93.3622 6.49986C93.3752 6.64272 93.3948 6.77936 93.4144 6.92222C91.1034 9.12719 89.8305 12.0589 89.8174 15.1769C89.8109 18.3135 91.0839 21.2638 93.4079 23.4874C95.7319 25.711 98.8262 26.9409 102.116 26.9471H102.155C105.439 26.9471 108.527 25.7359 110.857 23.5371C113.194 21.3259 114.494 18.3818 114.5 15.2452C114.52 8.76694 108.99 3.48123 102.188 3.46881V3.46259ZM108.938 21.6924C107.123 23.4067 104.715 24.3508 102.155 24.3508H102.123C99.5573 24.3446 97.1419 23.3881 95.3336 21.6551C93.682 20.0713 92.7093 18.0216 92.5592 15.8166L94.0084 16.6738C94.2304 16.8042 94.4785 16.8725 94.7265 16.8725C95.1835 16.8725 95.6209 16.6551 95.882 16.2638C96.2802 15.6551 96.0844 14.8601 95.4446 14.4812L93.3883 13.2638C93.2055 13.152 93.0031 13.0961 92.7942 13.0775C93.1076 11.8228 93.6951 10.6427 94.5372 9.61166C95.8559 11.4874 98.082 12.7918 100.315 12.6924C102.155 12.6179 104.036 11.8291 105.478 13.3384C106.418 14.3322 106.699 15.8787 106.523 17.121C106.373 18.1458 106.209 20.2638 107.789 19.8974C109.252 19.5558 108.788 16.2825 110.211 16.2825C111.791 16.2825 111.047 18.6489 110.962 18.9036C110.485 19.9346 109.806 20.8787 108.938 21.6986V21.6924Z" fill="white"/>
<path d="M101.75 17.9647L100.177 17.0455C99.5373 16.6728 98.7017 16.8654 98.3101 17.4741C97.9184 18.0827 98.1207 18.8778 98.7605 19.2504L100.334 20.1697C100.556 20.3001 100.797 20.3623 101.045 20.3623C101.502 20.3623 101.953 20.1449 102.207 19.7411C102.599 19.1324 102.397 18.3374 101.757 17.9647H101.75Z" fill="white"/>
</g>
<defs>
<clipPath id="clip0_5993_67798">
<rect width="114" height="40" fill="white" transform="translate(0.5)"/>
</clipPath>
</defs>
</svg>
