<svg width="122" height="46" viewBox="0 0 122 46" fill="none" xmlns="http://www.w3.org/2000/svg">
<g clip-path="url(#clip0_5318_110034)">
<path d="M35.634 45.4971L35.6058 39.7583L32.8643 44.4271H31.5245L28.7999 39.9128V45.4971H26.0134V34.6719H28.4959L32.2395 40.9198L35.8929 34.6719H38.3755L38.4036 45.4971H35.634Z" fill="#E72D29"/>
<path d="M52.8092 43.1283V45.4971H44.2582V34.6719H52.6122V37.0406H47.2417V38.8658H51.9761V41.1544H47.2417V43.134H52.8092V43.1283Z" fill="#E72D29"/>
<path d="M58.6694 34.668H63.7077C67.2374 34.668 69.658 36.7563 69.658 40.0806C69.658 43.4048 67.2374 45.4931 63.7077 45.4931H58.6694V34.668ZM63.5839 43.0558C65.3965 43.0558 66.6125 41.9572 66.6125 40.0863C66.6125 38.2153 65.3965 37.1168 63.5839 37.1168H61.6812V43.0558H63.5839Z" fill="#E72D29"/>
<path d="M74.3867 34.668H77.3984V45.4931H74.3867V34.668Z" fill="#E72D29"/>
<path d="M90.0645 43.3915H85.561L84.7222 45.4971H81.6486L86.3491 34.6719H89.3158L94.0332 45.4971H90.8976L90.0589 43.3915H90.0645ZM89.1807 41.1315L87.8127 37.6642L86.4448 41.1315H89.1863H89.1807Z" fill="#E72D29"/>
<path d="M50.1634 10.8858C50.1634 9.54696 49.9157 8.28822 49.4259 7.10386C48.9305 5.9195 48.255 4.88962 47.3937 4.01422C46.5324 3.13882 45.5191 2.44652 44.3539 1.94874C43.1886 1.44525 41.9501 1.19922 40.6328 1.19922H31.2036V30.3334H36.8105V20.4866H41.2183L44.4721 30.3334H50.1803L46.3804 18.6156C48.9024 16.5559 50.1577 13.9812 50.1577 10.8915L50.1634 10.8858ZM44.2919 12.8826C44.1005 13.3861 43.8247 13.821 43.47 14.1929C43.1154 14.5648 42.5862 14.9939 42.1302 15.2113C41.6799 15.4344 41.1789 15.4116 40.6328 15.4116H36.8105V6.875H40.6328C41.1789 6.875 41.8094 6.98371 42.2597 7.20685C42.7101 7.42999 43.1154 7.72751 43.47 8.09369C43.8247 8.46559 44.1005 8.90043 44.2919 9.40392C44.4833 9.90742 44.579 10.4395 44.579 11.0002C44.579 11.9786 44.4833 12.3791 44.2919 12.8826Z" fill="#E72D29"/>
<path d="M19.5283 6.88644L27.3813 5.84512V1.19922L13.9271 3.08733V23.1471C13.9271 23.9996 13.7244 26.9519 12.1538 30.3334H17.7607C19.0723 28.6627 19.4776 24.2571 19.5283 22.2717V15.4173H20.6542V30.3334H26.2329V15.4173H27.3757V11.641H19.5227V6.89216L19.5283 6.88644Z" fill="#E72D29"/>
<path d="M86.9176 13.8438C85.713 12.7854 84.1761 12.0873 82.6112 11.8184C81.3502 11.601 80.0498 11.6582 78.817 12.0187L78.862 6.875H89.0174V1.19922H73.2101L73.2664 15.9379L76.7228 18.6385L77.1619 18.3295C78.6087 17.4027 80.4213 16.8191 82.0764 17.5629C83.5682 18.2323 84.6152 19.8057 84.5533 21.4821C84.4914 23.1356 83.3374 24.6862 81.7949 25.1954C80.0273 25.779 78.6368 25.1954 77.0831 24.114C76.5145 23.7192 75.4844 22.5864 75.4844 22.5864L72.4051 26.889C72.6472 27.1693 72.9005 27.444 73.1594 27.7072C73.5535 28.1077 74.032 28.451 74.4936 28.7714C74.9665 29.0918 75.4618 29.3836 75.9798 29.6353C77.0099 30.1388 78.1077 30.4936 79.2335 30.6881C79.864 30.7968 80.4889 30.8426 81.125 30.8197C81.7611 30.7968 82.3972 30.7053 83.0221 30.5565C83.4556 30.4478 83.8834 30.3105 84.3 30.1445C85.1106 29.8184 85.8762 29.3721 86.5686 28.8286C88.7697 27.095 90.1489 24.3314 90.239 21.4993C90.3291 18.6042 89.0624 15.7491 86.9176 13.8553V13.8438Z" fill="#E72D29"/>
<path d="M66.6125 1.54709C64.8279 0.597312 62.7226 0.271184 60.7466 0.671692C59.5307 0.917719 58.371 1.4441 57.3577 2.17646C55.7252 3.3551 54.4811 5.09445 53.9914 7.07411C53.8619 7.60049 53.8112 8.14404 53.7775 8.68186C53.7268 9.45427 53.7775 10.3182 53.7775 10.3182H59.5194C59.5194 9.38561 59.4688 8.92789 59.6939 8.09827C60.2287 6.1415 63.0097 5.68377 64.5127 6.89674C65.1263 7.38879 65.5485 8.10971 65.7061 8.88784C65.8806 9.75179 65.6498 10.673 65.2839 11.4511C65.1601 11.72 65.0137 11.9775 64.8561 12.2235C64.3663 12.9959 54.3348 25.3144 54.3348 25.3144V30.3265H70.6318V24.6164L62.002 24.6335C62.002 24.6335 67.744 17.4759 68.5884 16.4288C70.2603 14.3691 70.964 12.418 71.1554 10.1237C71.358 7.66343 70.5981 5.20888 68.9487 3.37226C68.2844 2.62846 67.485 2.01054 66.6068 1.54137L66.6125 1.54709Z" fill="#E72D29"/>
<path d="M109.036 4.39483H108.996C108.675 4.39483 108.354 4.41199 108.034 4.43488C107.977 4.42343 107.921 4.41199 107.865 4.39483C106.075 3.91994 107.465 2.2378 106.418 1.65992C102.877 -0.268238 99.4487 4.20029 99.7358 7.81059C99.7471 7.9708 99.7696 8.12528 99.7921 8.28548C97.3602 10.7686 96.0148 14.0642 96.0092 17.5716C95.9979 21.1018 97.3433 24.4203 99.7865 26.9206C102.235 29.4209 105.489 30.8055 108.962 30.8112H109.002C112.458 30.8112 115.712 29.4495 118.166 26.9721C120.632 24.4832 121.994 21.1704 122.006 17.6459C122.023 10.3567 116.207 4.41199 109.041 4.39483H109.036ZM116.145 24.9066C114.231 26.8348 111.698 27.899 109.002 27.899H108.968C106.266 27.8932 103.727 26.8119 101.819 24.8665C100.079 23.0871 99.0603 20.7756 98.897 18.2982L100.423 19.2651C100.659 19.4139 100.918 19.4883 101.177 19.4883C101.655 19.4883 102.123 19.248 102.393 18.8017C102.809 18.1208 102.607 17.2225 101.937 16.7934L99.7696 15.4203C99.5726 15.2944 99.3586 15.2314 99.1447 15.2143C99.4769 13.8011 100.096 12.4737 100.98 11.3179C102.37 13.4234 104.712 14.8939 107.065 14.7852C109.007 14.6993 110.983 13.8125 112.503 15.5118C113.488 16.6275 113.787 18.3726 113.601 19.7686C113.443 20.9244 113.274 23.3046 114.935 22.8926C116.472 22.5093 115.988 18.8303 117.485 18.8246C119.152 18.8246 118.363 21.4851 118.273 21.7769C117.772 22.9327 117.052 24.0026 116.145 24.918V24.9066Z" fill="#E72D29"/>
<path d="M108.574 20.7112L106.913 19.6813C106.238 19.2636 105.354 19.4811 104.943 20.1619C104.532 20.8485 104.74 21.7411 105.416 22.1645L107.077 23.1943C107.307 23.3374 107.566 23.406 107.825 23.406C108.309 23.406 108.777 23.16 109.047 22.708C109.458 22.0214 109.249 21.1289 108.574 20.7055V20.7112Z" fill="#E72D29"/>
<path d="M12.7731 26.7459V21.6881L11.2419 20.4866H12.7674V16.7561H9.18715V15.4116H12.7674V11.6353H9.45736L12.7674 6.89216V3.08733H9.18715V1.19922H3.58029V3.08733H0V6.875H7.00858L4.89193 9.93031L4.88631 8.08224H1.18217V11.6353H0V15.4116H3.58029V16.7561H0V20.4866H3.58029L0 23.9424V29.0918L3.58029 25.636V30.3334H9.18715V23.9424L12.7731 26.7459Z" fill="#E72D29"/>
</g>
<defs>
<clipPath id="clip0_5318_110034">
<rect width="122" height="45" fill="white" transform="translate(0 0.5)"/>
</clipPath>
</defs>
</svg>
